<svg id="Layer_1" data-name="Layer 1" xmlns="http://www.w3.org/2000/svg" viewBox="0 0 11.62 10.97"><defs><style>.cls-1{fill:#fff;fill-rule:evenodd;}</style></defs><path class="cls-1" d="M2.57,8.4V6.14H8.09a.86.86,0,0,1,1,.69,1.15,1.15,0,0,1,0,.19,3.06,3.06,0,0,1-1.54,3l-.43.25c-.14.1,0,0-.14.13,1.68,0,3.61.16,4.36-1.54.36-.82.51-2.7-.46-3.47a4.25,4.25,0,0,0-1-.5A1.39,1.39,0,0,0,11,4a4.65,4.65,0,0,0,.1-2C10.89.78,10,.26,8.68.11S1.86.05.09,0V8.4ZM7.85,4.27a46.5,46.5,0,0,1-5.28,0L2.6,2A51.32,51.32,0,0,1,7.87,2c1.2,0,1,2.17,0,2.25" transform="translate(0)"/><path class="cls-1" d="M0,10.7a11.76,11.76,0,0,0,5.86-.23c1.43-.55,3-2,2.92-3.67C6.68,10.19,3.47,10,0,8.89Z" transform="translate(0)"/></svg>