<svg id="Layer_1" data-name="Layer 1" xmlns="http://www.w3.org/2000/svg" viewBox="0 0 76.61 10.25"><defs><style>.cls-1{fill:#403937;}.cls-2,.cls-3{fill:#0972a5;}.cls-3{fill-rule:evenodd;}</style></defs><path class="cls-1" d="M21.13,4a1.46,1.46,0,0,1-.35,1,2,2,0,0,1-1.57.57H16.88V0H19c1.05,0,1.58.49,1.58,1.46a1.46,1.46,0,0,1-.17.73,1.21,1.21,0,0,1-.44.43,1.33,1.33,0,0,1,.91.54,1.66,1.66,0,0,1,.21.84M19.27,1.67a.48.48,0,0,0-.35-.5.86.86,0,0,0-.31,0h-.27v1.1h.27A.66.66,0,0,0,19.14,2a.52.52,0,0,0,.13-.37m.41,2.26a.53.53,0,0,0-.5-.57,3.73,3.73,0,0,0-.55,0h-.29V4.51h.32a1.63,1.63,0,0,0,.78-.13.49.49,0,0,0,.24-.45"/><path class="cls-1" d="M28.67,5.62H27.11l-.36-1h-2l-.39,1H22.82L25,0h1.59Zm-2.3-2.08-.61-1.79-.62,1.79Z"/><polygon class="cls-1" points="35.6 5.62 34.15 5.62 34.15 3.29 32.04 3.29 32.04 5.62 30.59 5.62 30.59 0.02 32.04 0.02 32.04 2.19 34.15 2.19 34.15 0.02 35.6 0.02 35.6 5.62"/><path class="cls-1" d="M43.37,5.62H41.82l-.36-1h-2l-.38,1H37.53L39.68,0h1.59Zm-2.3-2.08-.6-1.79-.62,1.79Z"/><path class="cls-1" d="M49.94,5.62h-1.8L46.75,3.48V5.62H45.3V0h2.26A1.79,1.79,0,0,1,49,.61a1.74,1.74,0,0,1,.38,1.13A1.58,1.58,0,0,1,49,2.93a1.61,1.61,0,0,1-.78.4Zm-2-3.8a.63.63,0,0,0-.22-.5A.91.91,0,0,0,47,1.13h-.27v1.4H47a1,1,0,0,0,.66-.19.69.69,0,0,0,.22-.52"/><polygon class="cls-1" points="57.42 5.62 55.97 5.62 53.29 2.19 53.29 5.62 51.84 5.62 51.84 0.02 53.29 0.02 55.97 3.44 55.97 0.02 57.42 0.02 57.42 5.62"/><path class="cls-1" d="M65.19,5.62H63.64l-.36-1h-2l-.38,1H59.35L61.5,0h1.59Zm-2.3-2.08-.6-1.79-.62,1.79Z"/><polygon class="cls-1" points="72.7 5.62 71.25 5.62 68.57 2.19 68.57 5.62 67.12 5.62 67.12 0.02 68.57 0.02 71.25 3.44 71.25 0.02 72.7 0.02 72.7 5.62"/><rect class="cls-1" x="75.15" y="0.02" width="1.45" height="5.6"/><path class="cls-2" d="M18.31,7.87h0l-.64,1.36H19Zm1.43,2.34H19.4l-.33-.71H17.54l-.33.71h-.33l1.28-2.7h.3Z"/><path class="cls-2" d="M25.52,8.46h0a1,1,0,0,0-.23-.34,1.16,1.16,0,0,0-.37-.23,1.51,1.51,0,0,0-.48-.08h-.66V9.93h.66a1.51,1.51,0,0,0,.48-.08,1.16,1.16,0,0,0,.37-.23,1,1,0,0,0,.23-.33,1.16,1.16,0,0,0,.08-.42,1.11,1.11,0,0,0-.08-.41m.3.93a1.1,1.1,0,0,1-.31.43,1.47,1.47,0,0,1-.47.28,1.64,1.64,0,0,1-.6.11h-1V7.53h1a1.64,1.64,0,0,1,.6.1,1.47,1.47,0,0,1,.47.28,1.1,1.1,0,0,1,.31.43,1.31,1.31,0,0,1,0,1.05"/><polygon class="cls-2" points="31.7 7.53 32.04 7.53 30.84 10.22 30.55 10.22 29.35 7.53 29.7 7.53 30.7 9.84 31.7 7.53"/><polygon class="cls-2" points="37.8 7.81 36.08 7.81 36.08 8.72 37.61 8.72 37.61 8.99 36.08 8.99 36.08 9.93 37.81 9.93 37.81 10.21 35.77 10.21 35.77 7.53 37.8 7.53 37.8 7.81"/><path class="cls-2" d="M43.34,8h0a.92.92,0,0,0-.53-.14h-.87V8.9h.86a.88.88,0,0,0,.29,0,.7.7,0,0,0,.23-.11.4.4,0,0,0,.15-.17.48.48,0,0,0,.06-.24A.47.47,0,0,0,43.34,8m.21,2.26-.81-1h-.8v1h-.32V7.53h1.21a1.42,1.42,0,0,1,.42.06,1.07,1.07,0,0,1,.32.16.69.69,0,0,1,.2.25.72.72,0,0,1,.07.33.94.94,0,0,1-.05.3.73.73,0,0,1-.16.23,1,1,0,0,1-.24.16.85.85,0,0,1-.31.09l.86,1.1Z"/><polygon class="cls-2" points="48.72 10.21 48.4 10.21 48.4 7.81 47.46 7.81 47.46 7.53 49.66 7.53 49.66 7.81 48.72 7.81 48.72 10.21"/><rect class="cls-2" x="53.46" y="7.53" width="0.32" height="2.67"/><path class="cls-2" d="M58,8.37a.39.39,0,0,0,.12.14.82.82,0,0,0,.23.11,2.28,2.28,0,0,0,.38.1,1.72,1.72,0,0,1,.7.28.59.59,0,0,1,.22.48.83.83,0,0,1-.07.32.91.91,0,0,1-.2.24,1.05,1.05,0,0,1-.3.15,1.23,1.23,0,0,1-.39.05,1.63,1.63,0,0,1-1.14-.42l.19-.22a1.58,1.58,0,0,0,.45.28,1.38,1.38,0,0,0,.52.1.75.75,0,0,0,.45-.13.4.4,0,0,0,.17-.33.43.43,0,0,0,0-.17.36.36,0,0,0-.11-.14A.82.82,0,0,0,59,9.1a2.86,2.86,0,0,0-.36-.1,3.16,3.16,0,0,1-.42-.11,1.06,1.06,0,0,1-.3-.16.68.68,0,0,1-.17-.21.65.65,0,0,1-.06-.29.73.73,0,0,1,.07-.3A.72.72,0,0,1,58,7.7a1.13,1.13,0,0,1,.29-.15,1.06,1.06,0,0,1,.37-.06,1.8,1.8,0,0,1,.54.08,1.77,1.77,0,0,1,.44.25l-.18.23a1.22,1.22,0,0,0-.4-.22,1.14,1.14,0,0,0-.41-.07,1,1,0,0,0-.25,0l-.19.1a.37.37,0,0,0-.12.13.58.58,0,0,0,0,.18.47.47,0,0,0,0,.17"/><rect class="cls-2" x="63.53" y="7.53" width="0.32" height="2.67"/><polygon class="cls-2" points="69.91 7.53 70.21 7.53 70.21 10.21 69.96 10.21 68.15 8.01 68.15 10.21 67.84 10.21 67.84 7.53 68.14 7.53 69.91 9.67 69.91 7.53"/><path class="cls-2" d="M76.12,10.13a1.62,1.62,0,0,1-.64.12,1.46,1.46,0,0,1-.6-.11,1.35,1.35,0,0,1-.44-.29,1.21,1.21,0,0,1-.29-.44,1.62,1.62,0,0,1-.1-.54,1.4,1.4,0,0,1,.11-.53,1.37,1.37,0,0,1,.28-.44,1.23,1.23,0,0,1,.44-.3,1.4,1.4,0,0,1,.58-.11,1.57,1.57,0,0,1,.32,0,1.28,1.28,0,0,1,.28.07l.23.11a1.07,1.07,0,0,1,.22.15l-.21.23A.66.66,0,0,0,76.13,8a.85.85,0,0,0-.19-.1.71.71,0,0,0-.22-.06,1.12,1.12,0,0,0-.27,0,1,1,0,0,0-.43.09,1.16,1.16,0,0,0-.34.24,1.38,1.38,0,0,0-.22.35,1.22,1.22,0,0,0-.08.43,1.23,1.23,0,0,0,.08.44,1.09,1.09,0,0,0,.22.36A1.18,1.18,0,0,0,75,9.9a1.14,1.14,0,0,0,.46.08A1.43,1.43,0,0,0,76,9.91a1.62,1.62,0,0,0,.35-.19V9.05h-.85V8.78h1.16V9.84a1.55,1.55,0,0,1-.49.29"/><path class="cls-3" d="M2.4,7.83V5.72l5.15,0c.6,0,.87.23.92.81A2.88,2.88,0,0,1,7.05,9.42l-.4.23c-.13.1-.05,0-.13.12,1.57,0,3.37.15,4.06-1.43.34-.76.47-2.52-.43-3.24a3.67,3.67,0,0,0-.88-.46,1.33,1.33,0,0,0,1-.95,4.33,4.33,0,0,0,.08-1.83C10.16.73,9.34.25,8.09.1S1.74.05.08,0V7.83ZM7.32,4A44.2,44.2,0,0,1,2.4,4l0-2.18c.33-.06,4.89-.06,4.91,0,1.12.05,1,2,0,2.1"/><path class="cls-3" d="M0,10a11.05,11.05,0,0,0,5.46-.22C6.8,9.25,8.28,7.88,8.19,6.34c-2,3.16-4.95,3-8.19,1.95Z"/><rect class="cls-1" x="13.69" width="0.11" height="10.25"/></svg>